
 #######                            #######                      
 #       ###### ###### #            #       #####  ###### ###### 
 #       #      #      #            #       #    # #      #      
 #####   #####  #####  #      ##### #####   #    # #####  #####  
 #       #      #      #            #       #####  #      #      
 #       #      #      #            #       #   #  #      #      
 #       ###### ###### ######       #       #    # ###### ###### 


Genre:Comedy | Drama | Romance
Language:English
IMDb: 
http://www.imdb.com/title/tt1126618/
Source:BluRay.720p.DTS.x264-CHD


Format : MPEG-4
Format profile : Base Media
Codec ID : isom
File size : 2.38 GiB
Duration : 1h 47mn
Overall bit rate : 3 174 Kbps


Video
Format profile : High@L4.1
Format settings, CABAC : Yes
Format settings, ReFrames : 3 frames
Codec ID : avc1
Codec ID/Info : Advanced Video Coding
Duration : 1h 47mn
Bit rate mode : Variable
Bit rate : 2 735 Kbps
Maximum bit rate : 14.6 Mbps
Width : 1 280 pixels
Height : 528 pixels
Display aspect ratio : 2.40:1
Frame rate mode : Constant
Frame rate : 23.976 fps
Color space : YUV
Chroma subsampling : 4:2:0
Bit depth : 8 bits
Scan type : Progressive
Bits/(Pixel*Frame) : 0.169
Stream size : 2.05 GiB (86%)
Writing library : x264


Audio
ID : 2
Format : AAC
Format/Info : Advanced Audio Codec
Format version : Version 4
Format profile : LC
Format settings, SBR : No
Codec ID : 40
Duration : 1h 47mn
Bit rate mode : Variable
Bit rate : 439 Kbps
Maximum bit rate : 549 Kbps
Channel(s) : 6 channels
Channel positions : Front: L C R, Side: L R, LFE
Sampling rate : 48.0 KHz
Stream size : 338 MiB (14%)


Plot:
An upstart television producer accepts the challenge of reviving a struggling morning show program with warring co-hosts.





================================== 
http://thepiratebay.org/user/hiest
==================================





Screen Shots:
 
http://www.postimg.com/30000/29118.jpg
 
http://www.postimg.com/30000/29119.jpg
 
http://www.postimg.com/30000/29120.jpg
 
http://www.postimg.com/30000/29121.jpg
 
http://www.postimg.com/30000/29122.jpg


 #######                            #######                      
 #       ###### ###### #            #       #####  ###### ###### 
 #       #      #      #            #       #    # #      #      
 #####   #####  #####  #      ##### #####   #    # #####  #####  
 #       #      #      #            #       #####  #      #      
 #       #      #      #            #       #   #  #      #      
 #       ###### ###### ######       #       #    # ###### ###### 
